PathFileType	4	(X/Y/Z)	C:/Users/rsk02/Documents/GitHub/TechForParalysis/Code/Model/Data/ABD_NL001_FP03.trc	
DataRate	CameraRate	NumFrames	NumMarkers	Units	OrigDataRate	OrigDataStartFrame	OrigNumFrames	
100.00	100.00	14	24	m	100.00	398	1589	
Frame#	Time	EpL			EpM			rs			us			aa			ai			ts			acc			gu			c7			t8			ij			px			ij_proj_c7			ij_proj_px			ij_proj_ac			ai_proj_aa_x			ai_proj_ts			ai_proj_aa_z			centelbow_humerus			centusrs			centelbow_ulna			ac			ijc			
		X1	Y1	Z1	X2	Y2	Z2	X3	Y3	Z3	X4	Y4	Z4	X5	Y5	Z5	X6	Y6	Z6	X7	Y7	Z7	X8	Y8	Z8	X9	Y9	Z9	X10	Y10	Z10	X11	Y11	Z11	X12	Y12	Z12	X13	Y13	Z13	X14	Y14	Z14	X15	Y15	Z15	X16	Y16	Z16	X17	Y17	Z17	X18	Y18	Z18	X19	Y19	Z19	X20	Y20	Z20	X21	Y21	Z21	X22	Y22	Z22	X23	Y23	Z23	X24	Y24	Z24	

398	3.970	0.13546	1.23616	0.05188	0.16728	1.18239	0.04586	0.24946	1.24279	0.24679	0.20755	1.23569	0.27171	0.09893	1.26596	-0.17242	0.09237	1.11681	-0.21424	0.08830	1.20120	-0.26559	0.11992	1.27398	-0.20841	0.13639	1.23869	-0.19020	0.12826	1.27168	-0.32121	0.09135	1.08432	-0.29090	0.21712	1.22653	-0.28912	0.24811	1.09999	-0.26425	0.12826	1.22653	-0.28912	0.21712	1.09999	-0.28912	0.21712	1.22653	-0.20841	0.09893	1.11681	-0.21424	0.09237	1.20120	-0.21424	0.09237	1.11681	-0.17242	0.15137	1.20928	0.04887	0.22851	1.23924	0.25925	0.15137	1.20928	0.04886	0.11992	1.27398	-0.20840	0.21712	1.22653	-0.28910 
399	3.980	0.13729	1.22778	0.05248	0.16854	1.17394	0.04443	0.25172	1.22808	0.24705	0.20994	1.22063	0.27208	0.10003	1.26524	-0.17060	0.09406	1.11652	-0.21398	0.08969	1.20143	-0.26444	0.12100	1.27373	-0.20649	0.13761	1.23831	-0.18865	0.12915	1.27293	-0.31973	0.09056	1.08582	-0.29001	0.21782	1.22670	-0.28869	0.24771	1.09973	-0.26473	0.12915	1.22670	-0.28869	0.21782	1.09973	-0.28869	0.21782	1.22670	-0.20649	0.10003	1.11652	-0.21398	0.09406	1.20143	-0.21398	0.09406	1.11652	-0.17060	0.15291	1.20086	0.04845	0.23083	1.22436	0.25957	0.15291	1.20086	0.04845	0.12100	1.27373	-0.20640	0.21782	1.22670	-0.28860 
400	3.990	0.13873	1.22011	0.05325	0.17014	1.16659	0.04380	0.25401	1.21358	0.24665	0.21248	1.20537	0.27186	0.10093	1.26400	-0.16941	0.09326	1.11613	-0.21538	0.08891	1.20197	-0.26425	0.12151	1.27297	-0.20541	0.13806	1.23711	-0.18842	0.12941	1.27298	-0.31942	0.09074	1.08566	-0.29113	0.21801	1.22652	-0.28850	0.24783	1.09937	-0.26539	0.12941	1.22652	-0.28850	0.21801	1.09937	-0.28850	0.21801	1.22652	-0.20541	0.10093	1.11613	-0.21538	0.09326	1.20197	-0.21538	0.09326	1.11613	-0.16941	0.15443	1.19335	0.04852	0.23325	1.20948	0.25925	0.15443	1.19335	0.04852	0.12151	1.27297	-0.20540	0.21801	1.22652	-0.28800 
401	4.000	0.14001	1.21149	0.05355	0.17060	1.15786	0.04223	0.25604	1.19904	0.24691	0.21439	1.19027	0.27174	0.10075	1.26251	-0.16773	0.09093	1.11594	-0.21730	0.08971	1.20294	-0.26424	0.12242	1.27183	-0.20299	0.13774	1.23522	-0.18644	0.12971	1.27318	-0.31825	0.09080	1.08576	-0.29104	0.21837	1.22634	-0.28808	0.24804	1.09897	-0.26598	0.12971	1.22634	-0.28808	0.21837	1.09897	-0.28808	0.21837	1.22634	-0.20299	0.10075	1.11594	-0.21730	0.09093	1.20294	-0.21730	0.09093	1.11594	-0.16773	0.15530	1.18468	0.04789	0.23521	1.19466	0.25932	0.15530	1.18468	0.04788	0.12242	1.27183	-0.20290	0.21837	1.22634	-0.28800 
402	4.010	0.14132	1.20331	0.05391	0.17118	1.14965	0.04095	0.25821	1.18463	0.24667	0.21644	1.17521	0.27104	0.10301	1.26212	-0.16569	0.09425	1.11539	-0.21499	0.09161	1.20232	-0.26202	0.12421	1.27162	-0.20119	0.14009	1.23521	-0.18476	0.13008	1.27373	-0.31586	0.09043	1.08644	-0.28875	0.21893	1.22619	-0.28738	0.24815	1.09856	-0.26628	0.13008	1.22619	-0.28738	0.21893	1.09856	-0.28738	0.21893	1.22619	-0.20119	0.10301	1.11539	-0.21499	0.09425	1.20232	-0.21499	0.09425	1.11539	-0.16569	0.15625	1.17648	0.04743	0.23733	1.17992	0.25886	0.15625	1.17648	0.04743	0.12421	1.27162	-0.20110	0.21893	1.22619	-0.28730 
403	4.020	0.14265	1.19526	0.05407	0.17273	1.14206	0.03976	0.25980	1.16969	0.24595	0.21799	1.16009	0.27020	0.10271	1.26042	-0.16432	0.09139	1.11492	-0.21665	0.09134	1.20280	-0.26197	0.12460	1.27015	-0.19933	0.13945	1.23307	-0.18341	0.13044	1.27350	-0.31574	0.09093	1.08587	-0.29087	0.21918	1.22581	-0.28718	0.24848	1.09801	-0.26724	0.13044	1.22581	-0.28718	0.21918	1.09801	-0.28718	0.21918	1.22581	-0.19933	0.10271	1.11492	-0.21665	0.09139	1.20280	-0.21665	0.09139	1.11492	-0.16432	0.15769	1.16866	0.04692	0.23890	1.16489	0.25808	0.15769	1.16866	0.04691	0.12460	1.27015	-0.19930	0.21918	1.22581	-0.28710 
404	4.030	0.14397	1.18690	0.05391	0.17382	1.13405	0.03792	0.26169	1.15495	0.24417	0.22008	1.14482	0.26855	0.10507	1.26013	-0.16136	0.09656	1.11408	-0.21268	0.09475	1.20162	-0.25860	0.12675	1.27004	-0.19646	0.14233	1.23337	-0.18030	0.13100	1.27392	-0.31438	0.09076	1.08630	-0.29064	0.21969	1.22561	-0.28672	0.24851	1.09753	-0.26790	0.13100	1.22561	-0.28672	0.21969	1.09753	-0.28672	0.21969	1.22561	-0.19646	0.10507	1.11408	-0.21268	0.09656	1.20162	-0.21268	0.09656	1.11408	-0.16136	0.15890	1.16047	0.04592	0.24088	1.14988	0.25636	0.15890	1.16047	0.04591	0.12675	1.27004	-0.19640	0.21969	1.22561	-0.28670 
405	4.040	0.14539	1.17883	0.05357	0.17532	1.12649	0.03611	0.26322	1.14004	0.24190	0.22159	1.12876	0.26573	0.10527	1.25806	-0.16037	0.09399	1.11363	-0.21560	0.09416	1.20238	-0.25917	0.12729	1.26845	-0.19511	0.14205	1.23105	-0.17988	0.13110	1.27373	-0.31261	0.09092	1.08600	-0.28968	0.22001	1.22516	-0.28617	0.24891	1.09694	-0.26847	0.13110	1.22516	-0.28617	0.22001	1.09694	-0.28617	0.22001	1.22516	-0.19511	0.10527	1.11363	-0.21560	0.09399	1.20238	-0.21560	0.09399	1.11363	-0.16037	0.16036	1.15266	0.04484	0.24241	1.13440	0.25381	0.16036	1.15266	0.04483	0.12729	1.26845	-0.19510	0.22001	1.22516	-0.28610 
406	4.050	0.14662	1.17043	0.05300	0.17666	1.11872	0.03392	0.26501	1.12533	0.23932	0.22355	1.11387	0.26335	0.10700	1.25686	-0.15831	0.09645	1.11300	-0.21514	0.09585	1.20224	-0.25770	0.12881	1.26779	-0.19302	0.14388	1.23032	-0.17828	0.13219	1.27463	-0.31118	0.09052	1.08704	-0.28971	0.22084	1.22506	-0.28572	0.24872	1.09643	-0.26937	0.13219	1.22506	-0.28572	0.22084	1.09643	-0.28572	0.22084	1.22506	-0.19302	0.10700	1.11300	-0.21514	0.09645	1.20224	-0.21514	0.09645	1.11300	-0.15831	0.16164	1.14458	0.04346	0.24428	1.11960	0.25133	0.16164	1.14458	0.04346	0.12881	1.26779	-0.19300	0.22084	1.22506	-0.28570 
407	4.060	0.14780	1.16219	0.05225	0.17721	1.11074	0.03155	0.26638	1.11090	0.23702	0.22476	1.09868	0.26040	0.10760	1.25494	-0.15657	0.09446	1.11241	-0.21615	0.09568	1.20244	-0.25701	0.12970	1.26611	-0.19101	0.14402	1.22808	-0.17696	0.13273	1.27463	-0.31047	0.09077	1.08691	-0.29089	0.22129	1.22467	-0.28548	0.24898	1.09585	-0.27040	0.13273	1.22467	-0.28548	0.22129	1.09585	-0.28548	0.22129	1.22467	-0.19101	0.10760	1.11241	-0.21615	0.09446	1.20244	-0.21615	0.09446	1.11241	-0.15657	0.16250	1.13647	0.04190	0.24557	1.10479	0.24871	0.16250	1.13647	0.04190	0.12970	1.26611	-0.19100	0.22129	1.22467	-0.28540 
408	4.070	0.14948	1.15392	0.05107	0.17888	1.10321	0.02863	0.26798	1.09662	0.23369	0.22658	1.08402	0.25726	0.10956	1.25343	-0.15571	0.09425	1.11225	-0.21793	0.09490	1.20312	-0.25690	0.13086	1.26523	-0.19045	0.14533	1.22685	-0.17755	0.13272	1.27445	-0.30786	0.09081	1.08674	-0.28802	0.22168	1.22425	-0.28486	0.24943	1.09532	-0.27078	0.13272	1.22425	-0.28486	0.22168	1.09532	-0.28486	0.22168	1.22425	-0.19045	0.10956	1.11225	-0.21793	0.09425	1.20312	-0.21793	0.09425	1.11225	-0.15571	0.16418	1.12856	0.03985	0.24728	1.09032	0.24547	0.16418	1.12856	0.03984	0.13086	1.26523	-0.19040	0.22168	1.22425	-0.28480 
409	4.080	0.15097	1.14590	0.04979	0.18007	1.09575	0.02575	0.26935	1.08235	0.22991	0.22798	1.06909	0.25315	0.11064	1.25186	-0.15382	0.09414	1.11171	-0.21805	0.09573	1.20311	-0.25574	0.13213	1.26394	-0.18835	0.14621	1.22525	-0.17597	0.13303	1.27412	-0.30741	0.09139	1.08610	-0.29006	0.22200	1.22380	-0.28471	0.24993	1.09475	-0.27212	0.13303	1.22380	-0.28471	0.22200	1.09475	-0.28471	0.22200	1.22380	-0.18835	0.11064	1.11171	-0.21805	0.09414	1.20311	-0.21805	0.09414	1.11171	-0.15382	0.16552	1.12082	0.03777	0.24866	1.07573	0.24153	0.16552	1.12082	0.03776	0.13213	1.26394	-0.18830	0.22200	1.22380	-0.28470 
410	4.090	0.15235	1.13796	0.04825	0.18092	1.08829	0.02263	0.27048	1.06838	0.22639	0.22893	1.05439	0.24886	0.11248	1.25066	-0.15176	0.09610	1.11104	-0.21716	0.09766	1.20275	-0.25408	0.13398	1.26304	-0.18617	0.14807	1.22425	-0.17409	0.13370	1.27434	-0.30678	0.09161	1.08625	-0.29144	0.22253	1.22357	-0.28453	0.25015	1.09434	-0.27327	0.13370	1.22357	-0.28453	0.22253	1.09434	-0.28453	0.22253	1.22357	-0.18617	0.11248	1.11104	-0.21716	0.09610	1.20275	-0.21716	0.09610	1.11104	-0.15176	0.16664	1.11312	0.03544	0.24971	1.06138	0.23762	0.16664	1.11312	0.03544	0.13398	1.26304	-0.18610	0.22253	1.22357	-0.28450 
411	4.100	0.15377	1.13017	0.04652	0.18184	1.08102	0.01937	0.27139	1.05448	0.22260	0.22969	1.04005	0.24452	0.11587	1.25061	-0.14842	0.10548	1.11005	-0.21301	0.10436	1.20148	-0.25060	0.13745	1.26351	-0.18260	0.15272	1.22534	-0.17001	0.13397	1.27420	-0.30578	0.09200	1.08596	-0.29200	0.22290	1.22327	-0.28427	0.25059	1.09395	-0.27426	0.13397	1.22327	-0.28427	0.22290	1.09395	-0.28427	0.22290	1.22327	-0.18260	0.11587	1.11005	-0.21301	0.10548	1.20148	-0.21301	0.10548	1.11005	-0.14842	0.16780	1.10560	0.03295	0.25054	1.04726	0.23356	0.16780	1.10560	0.03294	0.13745	1.26351	-0.18200	0.22290	1.22327	-0.28420 
